<svg width="900" height="560" viewBox="0 0 900 560" xmlns="http://www.w3.org/2000/svg" font-family="ui-sans-serif,system-ui,sans-serif">
  <defs>
    <marker id="arr" viewBox="0 0 10 10" refX="8" refY="5" markerWidth="6" markerHeight="6" orient="auto-start-reverse">
      <path d="M2 1L8 5L2 9" fill="none" stroke="#888780" stroke-width="1.5" stroke-linecap="round" stroke-linejoin="round"/>
    </marker>
    <marker id="arr-green" viewBox="0 0 10 10" refX="8" refY="5" markerWidth="6" markerHeight="6" orient="auto-start-reverse">
      <path d="M2 1L8 5L2 9" fill="none" stroke="#639922" stroke-width="1.5" stroke-linecap="round" stroke-linejoin="round"/>
    </marker>
    <marker id="arr-blue" viewBox="0 0 10 10" refX="8" refY="5" markerWidth="6" markerHeight="6" orient="auto-start-reverse">
      <path d="M2 1L8 5L2 9" fill="none" stroke="#378ADD" stroke-width="1.5" stroke-linecap="round" stroke-linejoin="round"/>
    </marker>
  </defs>

  <!-- Internet -->
  <rect x="360" y="14" width="180" height="36" rx="8" fill="#D3D1C7" stroke="#888780" stroke-width="0.5"/>
  <text x="450" y="37" font-size="12" font-weight="500" fill="#2C2C2A" text-anchor="middle">Internet</text>
  <line x1="450" y1="50" x2="450" y2="74" stroke="#888780" stroke-width="1" marker-end="url(#arr)"/>

  <!-- Internet Gateway -->
  <rect x="340" y="74" width="220" height="36" rx="8" fill="#C0DD97" stroke="#639922" stroke-width="0.5"/>
  <text x="450" y="97" font-size="12" font-weight="500" fill="#27500A" text-anchor="middle">Internet Gateway</text>
  <line x1="450" y1="110" x2="450" y2="133" stroke="#639922" stroke-width="1" marker-end="url(#arr-green)"/>

  <!-- VPC -->
  <rect x="30" y="133" width="840" height="390" rx="12" fill="#EAF3DE" stroke="#97C459" stroke-width="1" stroke-dasharray="5 3"/>
  <text x="50" y="155" font-size="12" font-weight="500" fill="#3B6D11">VPC — dev: 10.0.0.0/16   staging: 10.1.0.0/16   prod: 10.2.0.0/16</text>

  <!-- Public subnets row -->
  <text x="50" y="178" font-size="11" fill="#5F5E5A">Public subnets</text>

  <rect x="50" y="186" width="240" height="80" rx="8" fill="#C0DD97" stroke="#639922" stroke-width="0.5"/>
  <text x="170" y="206" font-size="11" font-weight="500" fill="#27500A" text-anchor="middle">Public AZ-1  10.x.0.0/24</text>
  <rect x="66" y="214" width="100" height="24" rx="4" fill="#EAF3DE" stroke="#639922" stroke-width="0.5"/>
  <text x="116" y="230" font-size="10" fill="#3B6D11" text-anchor="middle">ALB node</text>
  <rect x="174" y="214" width="100" height="24" rx="4" fill="#EAF3DE" stroke="#639922" stroke-width="0.5"/>
  <text x="224" y="230" font-size="10" fill="#3B6D11" text-anchor="middle">NAT GW</text>

  <rect x="310" y="186" width="240" height="80" rx="8" fill="#C0DD97" stroke="#639922" stroke-width="0.5"/>
  <text x="430" y="206" font-size="11" font-weight="500" fill="#27500A" text-anchor="middle">Public AZ-2  10.x.1.0/24</text>
  <rect x="326" y="214" width="100" height="24" rx="4" fill="#EAF3DE" stroke="#639922" stroke-width="0.5"/>
  <text x="376" y="230" font-size="10" fill="#3B6D11" text-anchor="middle">ALB node</text>
  <rect x="434" y="214" width="100" height="24" rx="4" fill="#EAF3DE" stroke="#639922" stroke-width="0.5"/>
  <text x="484" y="230" font-size="10" fill="#3B6D11" text-anchor="middle">NAT GW (prod)</text>

  <rect x="570" y="186" width="240" height="80" rx="8" fill="#C0DD97" stroke="#639922" stroke-width="0.5"/>
  <text x="690" y="206" font-size="11" font-weight="500" fill="#27500A" text-anchor="middle">Public AZ-3  10.x.2.0/24</text>
  <rect x="586" y="214" width="100" height="24" rx="4" fill="#EAF3DE" stroke="#639922" stroke-width="0.5"/>
  <text x="636" y="230" font-size="10" fill="#3B6D11" text-anchor="middle">ALB node</text>
  <rect x="694" y="214" width="100" height="24" rx="4" fill="#EAF3DE" stroke="#639922" stroke-width="0.5"/>
  <text x="744" y="230" font-size="10" fill="#3B6D11" text-anchor="middle">NAT GW (prod)</text>

  <!-- Private subnets row -->
  <text x="50" y="292" font-size="11" fill="#5F5E5A">Private subnets</text>

  <rect x="50" y="300" width="240" height="200" rx="8" fill="#FAEEDA" stroke="#EF9F27" stroke-width="0.5"/>
  <text x="170" y="320" font-size="11" font-weight="500" fill="#412402" text-anchor="middle">Private AZ-1  10.x.10.0/24</text>
  <rect x="66" y="328" width="208" height="24" rx="4" fill="#FAC775" stroke="#BA7517" stroke-width="0.5"/>
  <text x="170" y="344" font-size="10" fill="#412402" text-anchor="middle">EKS node  t3.medium / m5.large</text>
  <rect x="66" y="358" width="208" height="24" rx="4" fill="#FAC775" stroke="#BA7517" stroke-width="0.5"/>
  <text x="170" y="374" font-size="10" fill="#412402" text-anchor="middle">myapp pod · vault-agent</text>
  <rect x="66" y="388" width="208" height="24" rx="4" fill="#FAC775" stroke="#BA7517" stroke-width="0.5"/>
  <text x="170" y="404" font-size="10" fill="#412402" text-anchor="middle">argocd pods</text>
  <rect x="66" y="418" width="208" height="24" rx="4" fill="#FAC775" stroke="#BA7517" stroke-width="0.5"/>
  <text x="170" y="434" font-size="10" fill="#412402" text-anchor="middle">vault pod (raft member)</text>
  <rect x="66" y="448" width="208" height="24" rx="4" fill="#FAC775" stroke="#BA7517" stroke-width="0.5"/>
  <text x="170" y="464" font-size="10" fill="#412402" text-anchor="middle">prometheus · grafana</text>

  <rect x="310" y="300" width="240" height="200" rx="8" fill="#FAEEDA" stroke="#EF9F27" stroke-width="0.5"/>
  <text x="430" y="320" font-size="11" font-weight="500" fill="#412402" text-anchor="middle">Private AZ-2  10.x.11.0/24</text>
  <rect x="326" y="328" width="208" height="24" rx="4" fill="#FAC775" stroke="#BA7517" stroke-width="0.5"/>
  <text x="430" y="344" font-size="10" fill="#412402" text-anchor="middle">EKS node  t3.medium / m5.large</text>
  <rect x="326" y="358" width="208" height="24" rx="4" fill="#FAC775" stroke="#BA7517" stroke-width="0.5"/>
  <text x="430" y="374" font-size="10" fill="#412402" text-anchor="middle">myapp pod · vault-agent</text>
  <rect x="326" y="388" width="208" height="24" rx="4" fill="#FAC775" stroke="#BA7517" stroke-width="0.5"/>
  <text x="430" y="404" font-size="10" fill="#412402" text-anchor="middle">argo-rollouts pods</text>
  <rect x="326" y="418" width="208" height="24" rx="4" fill="#FAC775" stroke="#BA7517" stroke-width="0.5"/>
  <text x="430" y="434" font-size="10" fill="#412402" text-anchor="middle">vault pod (raft member)</text>
  <rect x="326" y="448" width="208" height="24" rx="4" fill="#FAC775" stroke="#BA7517" stroke-width="0.5"/>
  <text x="430" y="464" font-size="10" fill="#412402" text-anchor="middle">alertmanager · fluent-bit</text>

  <rect x="570" y="300" width="240" height="200" rx="8" fill="#FAEEDA" stroke="#EF9F27" stroke-width="0.5"/>
  <text x="690" y="320" font-size="11" font-weight="500" fill="#412402" text-anchor="middle">Private AZ-3  10.x.12.0/24</text>
  <rect x="586" y="328" width="208" height="24" rx="4" fill="#FAC775" stroke="#BA7517" stroke-width="0.5"/>
  <text x="690" y="344" font-size="10" fill="#412402" text-anchor="middle">EKS node  t3.medium / m5.large</text>
  <rect x="586" y="358" width="208" height="24" rx="4" fill="#FAC775" stroke="#BA7517" stroke-width="0.5"/>
  <text x="690" y="374" font-size="10" fill="#412402" text-anchor="middle">myapp pod · vault-agent</text>
  <rect x="586" y="388" width="208" height="24" rx="4" fill="#FAC775" stroke="#BA7517" stroke-width="0.5"/>
  <text x="690" y="404" font-size="10" fill="#412402" text-anchor="middle">gatekeeper pods</text>
  <rect x="586" y="418" width="208" height="24" rx="4" fill="#FAC775" stroke="#BA7517" stroke-width="0.5"/>
  <text x="690" y="434" font-size="10" fill="#412402" text-anchor="middle">vault pod (raft member)</text>
  <rect x="586" y="448" width="208" height="24" rx="4" fill="#FAC775" stroke="#BA7517" stroke-width="0.5"/>
  <text x="690" y="464" font-size="10" fill="#412402" text-anchor="middle">image-updater</text>

  <!-- NAT to private arrows -->
  <line x1="224" y1="266" x2="170" y2="298" stroke="#888780" stroke-width="0.8" stroke-dasharray="3 2" marker-end="url(#arr)"/>
  <line x1="484" y1="266" x2="430" y2="298" stroke="#888780" stroke-width="0.8" stroke-dasharray="3 2" marker-end="url(#arr)"/>
  <line x1="744" y1="266" x2="690" y2="298" stroke="#888780" stroke-width="0.8" stroke-dasharray="3 2" marker-end="url(#arr)"/>

  <text x="450" y="540" font-size="12" font-weight="500" fill="#5F5E5A" text-anchor="middle">VPC network layout — public ALB/NAT tier, private EKS node tier</text>
</svg>
