<svg width="900" height="580" viewBox="0 0 900 580" xmlns="http://www.w3.org/2000/svg" font-family="ui-sans-serif,system-ui,sans-serif">

  <text x="450" y="28" font-size="14" font-weight="500" fill="#2C2C2A" text-anchor="middle">Kubernetes namespace layout</text>

  <!-- kube-system -->
  <rect x="30" y="44" width="840" height="76" rx="8" fill="#F1EFE8" stroke="#B4B2A9" stroke-width="0.5"/>
  <text x="50" y="64" font-size="11" font-weight="500" fill="#5F5E5A">kube-system</text>
  <rect x="50" y="70" width="115" height="36" rx="6" fill="#D3D1C7" stroke="#888780" stroke-width="0.5"/>
  <text x="107" y="93" font-size="10" fill="#2C2C2A" text-anchor="middle">coredns</text>
  <rect x="174" y="70" width="115" height="36" rx="6" fill="#D3D1C7" stroke="#888780" stroke-width="0.5"/>
  <text x="231" y="93" font-size="10" fill="#2C2C2A" text-anchor="middle">kube-proxy</text>
  <rect x="298" y="70" width="115" height="36" rx="6" fill="#D3D1C7" stroke="#888780" stroke-width="0.5"/>
  <text x="355" y="93" font-size="10" fill="#2C2C2A" text-anchor="middle">vpc-cni</text>
  <rect x="422" y="70" width="155" height="36" rx="6" fill="#D3D1C7" stroke="#888780" stroke-width="0.5"/>
  <text x="499" y="93" font-size="10" fill="#2C2C2A" text-anchor="middle">aws-load-balancer-controller</text>
  <rect x="586" y="70" width="115" height="36" rx="6" fill="#D3D1C7" stroke="#888780" stroke-width="0.5"/>
  <text x="643" y="93" font-size="10" fill="#2C2C2A" text-anchor="middle">ebs-csi-driver</text>
  <rect x="710" y="70" width="140" height="36" rx="6" fill="#D3D1C7" stroke="#888780" stroke-width="0.5"/>
  <text x="780" y="93" font-size="10" fill="#2C2C2A" text-anchor="middle">metrics-server</text>

  <!-- argocd -->
  <rect x="30" y="136" width="840" height="76" rx="8" fill="#EEEDFE" stroke="#AFA9EC" stroke-width="0.5"/>
  <text x="50" y="156" font-size="11" font-weight="500" fill="#3C3489">argocd</text>
  <rect x="50" y="162" width="140" height="36" rx="6" fill="#CECBF6" stroke="#7F77DD" stroke-width="0.5"/>
  <text x="120" y="185" font-size="10" fill="#26215C" text-anchor="middle">argocd-server</text>
  <rect x="200" y="162" width="140" height="36" rx="6" fill="#CECBF6" stroke="#7F77DD" stroke-width="0.5"/>
  <text x="270" y="185" font-size="10" fill="#26215C" text-anchor="middle">repo-server</text>
  <rect x="350" y="162" width="140" height="36" rx="6" fill="#CECBF6" stroke="#7F77DD" stroke-width="0.5"/>
  <text x="420" y="185" font-size="10" fill="#26215C" text-anchor="middle">application-controller</text>
  <rect x="500" y="162" width="140" height="36" rx="6" fill="#CECBF6" stroke="#7F77DD" stroke-width="0.5"/>
  <text x="570" y="185" font-size="10" fill="#26215C" text-anchor="middle">image-updater</text>
  <rect x="650" y="162" width="100" height="36" rx="6" fill="#CECBF6" stroke="#7F77DD" stroke-width="0.5"/>
  <text x="700" y="185" font-size="10" fill="#26215C" text-anchor="middle">redis</text>
  <rect x="760" y="162" width="90" height="36" rx="6" fill="#CECBF6" stroke="#7F77DD" stroke-width="0.5"/>
  <text x="805" y="185" font-size="10" fill="#26215C" text-anchor="middle">dex</text>

  <!-- argo-rollouts -->
  <rect x="30" y="228" width="420" height="64" rx="8" fill="#EEEDFE" stroke="#AFA9EC" stroke-width="0.5"/>
  <text x="50" y="248" font-size="11" font-weight="500" fill="#3C3489">argo-rollouts</text>
  <rect x="50" y="254" width="160" height="30" rx="6" fill="#CECBF6" stroke="#7F77DD" stroke-width="0.5"/>
  <text x="130" y="273" font-size="10" fill="#26215C" text-anchor="middle">rollouts-controller</text>
  <rect x="220" y="254" width="140" height="30" rx="6" fill="#CECBF6" stroke="#7F77DD" stroke-width="0.5"/>
  <text x="290" y="273" font-size="10" fill="#26215C" text-anchor="middle">rollouts-dashboard</text>

  <!-- gatekeeper-system -->
  <rect x="460" y="228" width="410" height="64" rx="8" fill="#FAECE7" stroke="#F0997B" stroke-width="0.5"/>
  <text x="480" y="248" font-size="11" font-weight="500" fill="#712B13">gatekeeper-system</text>
  <rect x="480" y="254" width="160" height="30" rx="6" fill="#F5C4B3" stroke="#D85A30" stroke-width="0.5"/>
  <text x="560" y="273" font-size="10" fill="#4A1B0C" text-anchor="middle">gatekeeper-controller (×3)</text>
  <rect x="650" y="254" width="200" height="30" rx="6" fill="#F5C4B3" stroke="#D85A30" stroke-width="0.5"/>
  <text x="750" y="273" font-size="10" fill="#4A1B0C" text-anchor="middle">gatekeeper-audit</text>

  <!-- vault -->
  <rect x="30" y="308" width="420" height="76" rx="8" fill="#E1F5EE" stroke="#5DCAA5" stroke-width="0.5"/>
  <text x="50" y="328" font-size="11" font-weight="500" fill="#085041">vault</text>
  <rect x="50" y="334" width="115" height="40" rx="6" fill="#9FE1CB" stroke="#1D9E75" stroke-width="0.5"/>
  <text x="107" y="350" font-size="10" fill="#04342C" text-anchor="middle">vault-0 (leader)</text>
  <text x="107" y="364" font-size="9" fill="#085041" text-anchor="middle">Raft storage</text>
  <rect x="174" y="334" width="115" height="40" rx="6" fill="#9FE1CB" stroke="#1D9E75" stroke-width="0.5"/>
  <text x="231" y="350" font-size="10" fill="#04342C" text-anchor="middle">vault-1</text>
  <text x="231" y="364" font-size="9" fill="#085041" text-anchor="middle">standby</text>
  <rect x="298" y="334" width="115" height="40" rx="6" fill="#9FE1CB" stroke="#1D9E75" stroke-width="0.5"/>
  <text x="355" y="350" font-size="10" fill="#04342C" text-anchor="middle">vault-2</text>
  <text x="355" y="364" font-size="9" fill="#085041" text-anchor="middle">standby</text>
  <rect x="50" y="376" width="168" height="20" rx="4" fill="#E1F5EE" stroke="#5DCAA5" stroke-width="0.5"/>
  <text x="134" y="390" font-size="9" fill="#085041" text-anchor="middle">KMS auto-unseal (staging/prod)</text>

  <!-- monitoring -->
  <rect x="460" y="308" width="410" height="76" rx="8" fill="#EAF3DE" stroke="#97C459" stroke-width="0.5"/>
  <text x="480" y="328" font-size="11" font-weight="500" fill="#3B6D11">monitoring</text>
  <rect x="480" y="334" width="100" height="40" rx="6" fill="#C0DD97" stroke="#639922" stroke-width="0.5"/>
  <text x="530" y="352" font-size="10" fill="#173404" text-anchor="middle">prometheus</text>
  <text x="530" y="366" font-size="9" fill="#3B6D11" text-anchor="middle">15d retention</text>
  <rect x="590" y="334" width="100" height="40" rx="6" fill="#C0DD97" stroke="#639922" stroke-width="0.5"/>
  <text x="640" y="352" font-size="10" fill="#173404" text-anchor="middle">grafana</text>
  <text x="640" y="366" font-size="9" fill="#3B6D11" text-anchor="middle">DORA dashboard</text>
  <rect x="700" y="334" width="110" height="40" rx="6" fill="#C0DD97" stroke="#639922" stroke-width="0.5"/>
  <text x="755" y="352" font-size="10" fill="#173404" text-anchor="middle">alertmanager</text>
  <text x="755" y="366" font-size="9" fill="#3B6D11" text-anchor="middle">PD + Slack</text>
  <rect x="820" y="334" width="36" height="40" rx="6" fill="#C0DD97" stroke="#639922" stroke-width="0.5"/>
  <text x="838" y="358" font-size="9" fill="#173404" text-anchor="middle">fb</text>

  <!-- app namespaces row -->
  <rect x="30" y="400" width="250" height="140" rx="8" fill="#FAEEDA" stroke="#EF9F27" stroke-width="0.5"/>
  <text x="50" y="420" font-size="11" font-weight="500" fill="#412402">dev</text>
  <rect x="50" y="428" width="210" height="36" rx="6" fill="#FAC775" stroke="#BA7517" stroke-width="0.5"/>
  <text x="155" y="446" font-size="10" fill="#412402" text-anchor="middle">myapp:&lt;sha&gt; (1 replica)</text>
  <text x="155" y="458" font-size="9" fill="#633806" text-anchor="middle">rolling update · auto-sync</text>
  <rect x="50" y="470" width="210" height="30" rx="6" fill="#FAC775" stroke="#BA7517" stroke-width="0.5"/>
  <text x="155" y="490" font-size="10" fill="#412402" text-anchor="middle">vault-agent sidecar (secrets)</text>
  <rect x="50" y="506" width="210" height="24" rx="6" fill="#FAC775" stroke="#BA7517" stroke-width="0.5"/>
  <text x="155" y="522" font-size="10" fill="#412402" text-anchor="middle">HPA: CPU 70% / mem 80%</text>

  <rect x="295" y="400" width="280" height="140" rx="8" fill="#FAEEDA" stroke="#EF9F27" stroke-width="0.5"/>
  <text x="315" y="420" font-size="11" font-weight="500" fill="#412402">staging</text>
  <rect x="315" y="428" width="240" height="36" rx="6" fill="#FAC775" stroke="#BA7517" stroke-width="0.5"/>
  <text x="435" y="446" font-size="10" fill="#412402" text-anchor="middle">myapp:&lt;sha&gt; (2 replicas)</text>
  <text x="435" y="458" font-size="9" fill="#633806" text-anchor="middle">rolling update · auto-sync</text>
  <rect x="315" y="470" width="240" height="30" rx="6" fill="#FAC775" stroke="#BA7517" stroke-width="0.5"/>
  <text x="435" y="490" font-size="10" fill="#412402" text-anchor="middle">PodDisruptionBudget minAvailable: 1</text>
  <rect x="315" y="506" width="240" height="24" rx="6" fill="#FAC775" stroke="#BA7517" stroke-width="0.5"/>
  <text x="435" y="522" font-size="10" fill="#412402" text-anchor="middle">vault-agent · HPA</text>

  <rect x="590" y="400" width="280" height="140" rx="8" fill="#FAEEDA" stroke="#EF9F27" stroke-width="0.5"/>
  <text x="610" y="420" font-size="11" font-weight="500" fill="#412402">prod</text>
  <rect x="610" y="428" width="240" height="36" rx="6" fill="#FAC775" stroke="#BA7517" stroke-width="0.5"/>
  <text x="730" y="446" font-size="10" fill="#412402" text-anchor="middle">myapp:&lt;sha&gt; (3–10 replicas)</text>
  <text x="730" y="458" font-size="9" fill="#633806" text-anchor="middle">Argo Rollouts canary · manual sync</text>
  <rect x="610" y="470" width="240" height="30" rx="6" fill="#FAC775" stroke="#BA7517" stroke-width="0.5"/>
  <text x="730" y="490" font-size="10" fill="#412402" text-anchor="middle">NetworkPolicy · PDB minAvailable: 2</text>
  <rect x="610" y="506" width="240" height="24" rx="6" fill="#FAC775" stroke="#BA7517" stroke-width="0.5"/>
  <text x="730" y="522" font-size="10" fill="#412402" text-anchor="middle">vault-agent · HPA · m5.large nodes</text>

  <text x="450" y="560" font-size="12" font-weight="500" fill="#5F5E5A" text-anchor="middle">Kubernetes namespace layout — platform namespaces and application environments</text>
</svg>
